#!OML:ASF Y:\EmotionMaleHayes\Project 1\Capture day 1\Session 1\Male1.ASF
:FULLY-SPECIFIED
:DEGREES
161
root -5.65768 16.9487 7.74037 -199.446 81.2646 -178.86
lowerback 13.798 2.50983 -2.74698
upperback 0.694738 2.83028 -2.50344
thorax -7.00951 1.47193 -1.6658
lowerneck -26.4512 0.0514721 5.45743
upperneck 19.6492 -2.85903 3.534
head 10.6865 -0.352837 -0.0601287
rclavicle 4.05521e-014 -4.92986e-014
rhumerus 34.954 -14.6155 -21.3786
rradius 90.7168
rwrist -45.2718
rhand -29.7 -25.1122
rfingers 7.12502
rthumb -3.02773 -55.0705
lclavicle 4.05521e-014 -4.92986e-014
lhumerus -48.8909 -13.5489 85.3898
lradius 59.7847
lwrist 9.38166
lhand -31.52 -22.8315
lfingers 7.12502
lthumb -4.78522 7.09445
rfemur 0.620097 0.763966 7.36266
rtibia 58.1044
rfoot -13.0364 -11.036
rtoes 20.5481
lfemur 1.91385 8.50889 -20.9192
ltibia 35.4026
lfoot 349 -0.146823
ltoes -2.7412
162
root -5.40816 16.8267 7.59783 -207.042 80.3881 -185.854
lowerback 14.9683 2.19902 -4.06928
upperback 1.30594 2.19084 -2.62904
thorax -7.0531 1.21063 -0.961689
lowerneck -27.193 0.489045 6.32493
upperneck 19.6821 -2.58571 3.25283
head 10.8201 -0.18629 -0.254785
rclavicle 7.95139e-016 3.81667e-014
rhumerus 34.4276 -18.1457 -19.4747
rradius 90.0415
rwrist -47.237
rhand -29.0876 -25.3979
rfingers 7.12502
rthumb -2.43633 -55.3638
lclavicle 7.95139e-016 3.81667e-014
lhumerus -46.5244 -14.6571 88.6657
lradius 59.8624
lwrist 9.43382
lhand -31.4544 -25.0955
lfingers 7.12502
lthumb -4.72192 4.83192
rfemur -2.54462 0.564501 5.20791
rtibia 58.0574
rfoot -14.0731 -11.8183
rtoes 19.7975
lfemur 3.47075 8.96705 -22.7844
ltibia 35.3414
lfoot 346.439 0.314676
ltoes 1.50989
163
root -5.16582 16.6975 7.45634 -216.012 78.5656 -194.696
lowerback 15.9049 1.83675 -6.21836
upperback 1.69102 1.30696 -3.07517
thorax -7.1774 0.855051 -0.0663891
lowerneck -27.2722 0.84994 6.99603
upperneck 19.4995 -2.30968 3.11119
head 10.7644 -0.0324826 -0.366486
rclavicle 2.16675e-014 -6.83819e-014
rhumerus 33.6194 -21.2974 -17.5117
rradius 89.0824
rwrist -48.8339
rhand -29.0425 -25.3673
rfingers 7.12502
rthumb -2.39279 -55.3336
lclavicle 2.16675e-014 -6.83819e-014
lhumerus -43.9225 -16.2361 91.5763
lradius 60.0872
lwrist 9.31077
lhand -30.5021 -25.616
lfingers 7.12502
lthumb -3.80229 4.32985
rfemur -6.12755 -0.22198 1.74915
rtibia 57.8868
rfoot -15.0109 -12.3295
rtoes 20.1451
lfemur 4.35802 9.18591 -25.9941
ltibia 35.8227
lfoot 343.79 0.811563
ltoes 5.78354
164
root -4.93645 16.5482 7.33333 -220.194 76.221 -198.816
lowerback 17.1209 1.29096 -8.23785
upperback 1.98559 0.136639 -3.4379
thorax -7.47219 0.365721 0.917002
lowerneck -27.0851 1.20613 7.63921
upperneck 19.1026 -2.01743 3.09012
head 10.5884 0.130513 -0.427413
rclavicle 1.47101e-014 6.36111e-015
rhumerus 32.7 -24.3166 -15.5281
rradius 87.8689
rwrist -50.1945
rhand -29.4729 -25.0536
rfingers 7.12502
rthumb -2.80844 -55.0148
lclavicle 1.47101e-014 6.36111e-015
lhumerus -40.8766 -18.3419 93.9668
lradius 60.5475
lwrist 9.07422
lhand -29.8192 -26.6625
lfingers 7.12502
lthumb -3.14284 3.29413
rfemur -9.63298 -1.56633 -1.40215
rtibia 57.4685
rfoot -16.1427 -13.0421
rtoes 19.7956
lfemur 5.04967 8.58364 -29.0691
ltibia 36.6394
lfoot 341.321 1.24353
ltoes 7.9412
165
root -4.71185 16.3915 7.21793 -221.981 73.9729 -200.589
lowerback 18.4228 0.684687 -9.96508
upperback 2.30699 -1.10152 -3.66039
thorax -7.70348 -0.159594 1.92884
lowerneck -27.0085 1.59796 8.12208
upperneck 18.4767 -1.67069 3.32969
head 10.3573 0.331542 -0.359715
rclavicle 4.29375e-014 9.14409e-014
rhumerus 31.835 -27.4053 -13.6104
rradius 86.3475
rwrist -51.1089
rhand -29.2672 -25.2795
rfingers 7.12502
rthumb -2.60973 -55.2433
lclavicle 4.29375e-014 9.14409e-014
lhumerus -37.2729 -20.8599 95.7116
lradius 61.2256
lwrist 8.48203
lhand -30.5857 -28.6952
lfingers 7.12502
lthumb -3.88305 1.2492
rfemur -13.084 -3.01967 -4.10142
rtibia 56.6695
rfoot -15.8863 -13.7162
rtoes 15.5401
lfemur 5.80644 7.24991 -31.9156
ltibia 37.352
lfoot 339.241 1.4376
ltoes 10.1784
166
root -4.48177 16.2417 7.09809 -222.446 72.2628 -201.063
lowerback 19.5921 0.133779 -11.0429
upperback 2.6168 -2.14919 -3.73586
thorax -7.84457 -0.614481 2.71478
lowerneck -26.9131 1.87724 8.3137
upperneck 17.7964 -1.39659 3.74129
head 10.1068 0.496425 -0.198399
rclavicle -2.20651e-014 -3.26007e-014
rhumerus 30.6141 -30.2736 -11.491
rradius 84.6011
rwrist -51.5406
rhand -28.638 -25.8832
rfingers 7.12502
rthumb -2.00214 -55.8535
lclavicle -2.20651e-014 -3.26007e-014
lhumerus -33.1242 -23.7288 96.7263
lradius 61.9226
lwrist 8.54881
lhand -30.469 -30.0657
lfingers 7.12502
lthumb -3.77038 -0.119282
rfemur -16.5974 -4.29722 -6.0831
rtibia 55.7173
rfoot -16.7293 -13.8305
rtoes 15.582
lfemur 6.58143 5.71194 -34.2228
ltibia 37.9636
lfoot 337.84 1.75107
ltoes 12.2641
